<svg id="visual" viewBox="0 0 900 450" width="900" height="450" xmlns="http://www.w3.org/2000/svg" xmlns:xlink="http://www.w3.org/1999/xlink" version="1.1"><rect x="0" y="0" width="900" height="450" fill="#007582"></rect><path d="M0 372L21.5 366.5C43 361 86 350 128.8 349.3C171.7 348.7 214.3 358.3 257.2 363.8C300 369.3 343 370.7 385.8 372.8C428.7 375 471.3 378 514.2 375.2C557 372.3 600 363.7 642.8 362C685.7 360.3 728.3 365.7 771.2 369C814 372.3 857 373.7 878.5 374.3L900 375L900 451L878.5 451C857 451 814 451 771.2 451C728.3 451 685.7 451 642.8 451C600 451 557 451 514.2 451C471.3 451 428.7 451 385.8 451C343 451 300 451 257.2 451C214.3 451 171.7 451 128.8 451C86 451 43 451 21.5 451L0 451Z" fill="#007582"></path><path d="M0 366L21.5 365.7C43 365.3 86 364.7 128.8 369.5C171.7 374.3 214.3 384.7 257.2 389.2C300 393.7 343 392.3 385.8 392C428.7 391.7 471.3 392.3 514.2 386.7C557 381 600 369 642.8 365.8C685.7 362.7 728.3 368.3 771.2 371.8C814 375.3 857 376.7 878.5 377.3L900 378L900 451L878.5 451C857 451 814 451 771.2 451C728.3 451 685.7 451 642.8 451C600 451 557 451 514.2 451C471.3 451 428.7 451 385.8 451C343 451 300 451 257.2 451C214.3 451 171.7 451 128.8 451C86 451 43 451 21.5 451L0 451Z" fill="#006d7c"></path><path d="M0 400L21.5 397.7C43 395.3 86 390.7 128.8 387.2C171.7 383.7 214.3 381.3 257.2 380.7C300 380 343 381 385.8 382.7C428.7 384.3 471.3 386.7 514.2 388.5C557 390.3 600 391.7 642.8 389.8C685.7 388 728.3 383 771.2 380.3C814 377.7 857 377.3 878.5 377.2L900 377L900 451L878.5 451C857 451 814 451 771.2 451C728.3 451 685.7 451 642.8 451C600 451 557 451 514.2 451C471.3 451 428.7 451 385.8 451C343 451 300 451 257.2 451C214.3 451 171.7 451 128.8 451C86 451 43 451 21.5 451L0 451Z" fill="#006575"></path><path d="M0 399L21.5 400.3C43 401.7 86 404.3 128.8 406.7C171.7 409 214.3 411 257.2 412.3C300 413.7 343 414.3 385.8 413.8C428.7 413.3 471.3 411.7 514.2 409.5C557 407.3 600 404.7 642.8 402.8C685.7 401 728.3 400 771.2 399.8C814 399.7 857 400.3 878.5 400.7L900 401L900 451L878.5 451C857 451 814 451 771.2 451C728.3 451 685.7 451 642.8 451C600 451 557 451 514.2 451C471.3 451 428.7 451 385.8 451C343 451 300 451 257.2 451C214.3 451 171.7 451 128.8 451C86 451 43 451 21.5 451L0 451Z" fill="#005d6f"></path><path d="M0 417L21.5 418.7C43 420.3 86 423.7 128.8 424.2C171.7 424.7 214.3 422.3 257.2 423.2C300 424 343 428 385.8 428C428.7 428 471.3 424 514.2 423.8C557 423.7 600 427.3 642.8 428.2C685.7 429 728.3 427 771.2 426C814 425 857 425 878.5 425L900 425L900 451L878.5 451C857 451 814 451 771.2 451C728.3 451 685.7 451 642.8 451C600 451 557 451 514.2 451C471.3 451 428.7 451 385.8 451C343 451 300 451 257.2 451C214.3 451 171.7 451 128.8 451C86 451 43 451 21.5 451L0 451Z" fill="#005668"></path></svg>