<svg id="visual" viewBox="0 0 900 450" width="900" height="450" xmlns="http://www.w3.org/2000/svg" xmlns:xlink="http://www.w3.org/1999/xlink" version="1.1"><rect x="0" y="0" width="900" height="450" fill="#584e4b"></rect><path d="M0 338L21.5 342.2C43 346.3 86 354.7 128.8 358.7C171.7 362.7 214.3 362.3 257.2 361C300 359.7 343 357.3 385.8 355C428.7 352.7 471.3 350.3 514.2 349.8C557 349.3 600 350.7 642.8 353.7C685.7 356.7 728.3 361.3 771.2 363.7C814 366 857 366 878.5 366L900 366L900 451L878.5 451C857 451 814 451 771.2 451C728.3 451 685.7 451 642.8 451C600 451 557 451 514.2 451C471.3 451 428.7 451 385.8 451C343 451 300 451 257.2 451C214.3 451 171.7 451 128.8 451C86 451 43 451 21.5 451L0 451Z" fill="#584e4b"></path><path d="M0 370L21.5 371.8C43 373.7 86 377.3 128.8 377C171.7 376.7 214.3 372.3 257.2 373.3C300 374.3 343 380.7 385.8 383C428.7 385.3 471.3 383.7 514.2 382.5C557 381.3 600 380.7 642.8 377C685.7 373.3 728.3 366.7 771.2 364.2C814 361.7 857 363.3 878.5 364.2L900 365L900 451L878.5 451C857 451 814 451 771.2 451C728.3 451 685.7 451 642.8 451C600 451 557 451 514.2 451C471.3 451 428.7 451 385.8 451C343 451 300 451 257.2 451C214.3 451 171.7 451 128.8 451C86 451 43 451 21.5 451L0 451Z" fill="#514845"></path><path d="M0 391L21.5 390C43 389 86 387 128.8 387.8C171.7 388.7 214.3 392.3 257.2 393.7C300 395 343 394 385.8 395.7C428.7 397.3 471.3 401.7 514.2 401.8C557 402 600 398 642.8 393.5C685.7 389 728.3 384 771.2 386C814 388 857 397 878.5 401.5L900 406L900 451L878.5 451C857 451 814 451 771.2 451C728.3 451 685.7 451 642.8 451C600 451 557 451 514.2 451C471.3 451 428.7 451 385.8 451C343 451 300 451 257.2 451C214.3 451 171.7 451 128.8 451C86 451 43 451 21.5 451L0 451Z" fill="#4a4240"></path><path d="M0 416L21.5 413.7C43 411.3 86 406.7 128.8 405.5C171.7 404.3 214.3 406.7 257.2 406.7C300 406.7 343 404.3 385.8 404.2C428.7 404 471.3 406 514.2 409.2C557 412.3 600 416.7 642.8 417.8C685.7 419 728.3 417 771.2 417C814 417 857 419 878.5 420L900 421L900 451L878.5 451C857 451 814 451 771.2 451C728.3 451 685.7 451 642.8 451C600 451 557 451 514.2 451C471.3 451 428.7 451 385.8 451C343 451 300 451 257.2 451C214.3 451 171.7 451 128.8 451C86 451 43 451 21.5 451L0 451Z" fill="#433c3a"></path><path d="M0 417L21.5 419.8C43 422.7 86 428.3 128.8 429C171.7 429.7 214.3 425.3 257.2 424C300 422.7 343 424.3 385.8 424.3C428.7 424.3 471.3 422.7 514.2 424C557 425.3 600 429.7 642.8 429.8C685.7 430 728.3 426 771.2 426.5C814 427 857 432 878.5 434.5L900 437L900 451L878.5 451C857 451 814 451 771.2 451C728.3 451 685.7 451 642.8 451C600 451 557 451 514.2 451C471.3 451 428.7 451 385.8 451C343 451 300 451 257.2 451C214.3 451 171.7 451 128.8 451C86 451 43 451 21.5 451L0 451Z" fill="#3d3735"></path></svg>