<svg id="visual" viewBox="0 0 960 540" width="960" height="540" xmlns="http://www.w3.org/2000/svg" xmlns:xlink="http://www.w3.org/1999/xlink" version="1.1"><rect x="0" y="0" width="960" height="540" fill="#5A2A5B"></rect><path d="M0 453L13.3 456.3C26.7 459.7 53.3 466.3 80 471C106.7 475.7 133.3 478.3 160 477.7C186.7 477 213.3 473 240 468.2C266.7 463.3 293.3 457.7 320 457.3C346.7 457 373.3 462 400 466.3C426.7 470.7 453.3 474.3 480 474.8C506.7 475.3 533.3 472.7 560 469.5C586.7 466.3 613.3 462.7 640 463.2C666.7 463.7 693.3 468.3 720 468.8C746.7 469.3 773.3 465.7 800 462.2C826.7 458.7 853.3 455.3 880 455.3C906.7 455.3 933.3 458.7 946.7 460.3L960 462L960 541L946.7 541C933.3 541 906.7 541 880 541C853.3 541 826.7 541 800 541C773.3 541 746.7 541 720 541C693.3 541 666.7 541 640 541C613.3 541 586.7 541 560 541C533.3 541 506.7 541 480 541C453.3 541 426.7 541 400 541C373.3 541 346.7 541 320 541C293.3 541 266.7 541 240 541C213.3 541 186.7 541 160 541C133.3 541 106.7 541 80 541C53.3 541 26.7 541 13.3 541L0 541Z" fill="#5a2a5b"></path><path d="M0 473L13.3 471.7C26.7 470.3 53.3 467.7 80 467.7C106.7 467.7 133.3 470.3 160 474.2C186.7 478 213.3 483 240 481.8C266.7 480.7 293.3 473.3 320 471.8C346.7 470.3 373.3 474.7 400 474.8C426.7 475 453.3 471 480 471.7C506.7 472.3 533.3 477.7 560 481.8C586.7 486 613.3 489 640 486.2C666.7 483.3 693.3 474.7 720 473.7C746.7 472.7 773.3 479.3 800 484.3C826.7 489.3 853.3 492.7 880 489.3C906.7 486 933.3 476 946.7 471L960 466L960 541L946.7 541C933.3 541 906.7 541 880 541C853.3 541 826.7 541 800 541C773.3 541 746.7 541 720 541C693.3 541 666.7 541 640 541C613.3 541 586.7 541 560 541C533.3 541 506.7 541 480 541C453.3 541 426.7 541 400 541C373.3 541 346.7 541 320 541C293.3 541 266.7 541 240 541C213.3 541 186.7 541 160 541C133.3 541 106.7 541 80 541C53.3 541 26.7 541 13.3 541L0 541Z" fill="#853668"></path><path d="M0 504L13.3 502.3C26.7 500.7 53.3 497.3 80 496.2C106.7 495 133.3 496 160 498C186.7 500 213.3 503 240 500.5C266.7 498 293.3 490 320 489C346.7 488 373.3 494 400 494.3C426.7 494.7 453.3 489.3 480 486.7C506.7 484 533.3 484 560 486.7C586.7 489.3 613.3 494.7 640 498C666.7 501.3 693.3 502.7 720 499.5C746.7 496.3 773.3 488.7 800 488.7C826.7 488.7 853.3 496.3 880 498.7C906.7 501 933.3 498 946.7 496.5L960 495L960 541L946.7 541C933.3 541 906.7 541 880 541C853.3 541 826.7 541 800 541C773.3 541 746.7 541 720 541C693.3 541 666.7 541 640 541C613.3 541 586.7 541 560 541C533.3 541 506.7 541 480 541C453.3 541 426.7 541 400 541C373.3 541 346.7 541 320 541C293.3 541 266.7 541 240 541C213.3 541 186.7 541 160 541C133.3 541 106.7 541 80 541C53.3 541 26.7 541 13.3 541L0 541Z" fill="#b0446e"></path><path d="M0 517L13.3 515.7C26.7 514.3 53.3 511.7 80 508.3C106.7 505 133.3 501 160 500.5C186.7 500 213.3 503 240 503.7C266.7 504.3 293.3 502.7 320 502.7C346.7 502.7 373.3 504.3 400 506.3C426.7 508.3 453.3 510.7 480 511.3C506.7 512 533.3 511 560 509.5C586.7 508 613.3 506 640 503.8C666.7 501.7 693.3 499.3 720 499.7C746.7 500 773.3 503 800 506.3C826.7 509.7 853.3 513.3 880 512.7C906.7 512 933.3 507 946.7 504.5L960 502L960 541L946.7 541C933.3 541 906.7 541 880 541C853.3 541 826.7 541 800 541C773.3 541 746.7 541 720 541C693.3 541 666.7 541 640 541C613.3 541 586.7 541 560 541C533.3 541 506.7 541 480 541C453.3 541 426.7 541 400 541C373.3 541 346.7 541 320 541C293.3 541 266.7 541 240 541C213.3 541 186.7 541 160 541C133.3 541 106.7 541 80 541C53.3 541 26.7 541 13.3 541L0 541Z" fill="#d8586e"></path><path d="M0 515L13.3 515.7C26.7 516.3 53.3 517.7 80 518.8C106.7 520 133.3 521 160 520.2C186.7 519.3 213.3 516.7 240 515.2C266.7 513.7 293.3 513.3 320 515.3C346.7 517.3 373.3 521.7 400 523.2C426.7 524.7 453.3 523.3 480 522.7C506.7 522 533.3 522 560 521.7C586.7 521.3 613.3 520.7 640 521.8C666.7 523 693.3 526 720 526.2C746.7 526.3 773.3 523.7 800 521.7C826.7 519.7 853.3 518.3 880 518.8C906.7 519.3 933.3 521.7 946.7 522.8L960 524L960 541L946.7 541C933.3 541 906.7 541 880 541C853.3 541 826.7 541 800 541C773.3 541 746.7 541 720 541C693.3 541 666.7 541 640 541C613.3 541 586.7 541 560 541C533.3 541 506.7 541 480 541C453.3 541 426.7 541 400 541C373.3 541 346.7 541 320 541C293.3 541 266.7 541 240 541C213.3 541 186.7 541 160 541C133.3 541 106.7 541 80 541C53.3 541 26.7 541 13.3 541L0 541Z" fill="#fa7268"></path></svg>