<svg id="visual" viewBox="0 0 900 450" width="900" height="450" xmlns="http://www.w3.org/2000/svg" xmlns:xlink="http://www.w3.org/1999/xlink" version="1.1"><rect x="0" y="0" width="900" height="450" fill="#ee1c99"></rect><path d="M0 366L21.5 368.2C43 370.3 86 374.7 128.8 372C171.7 369.3 214.3 359.7 257.2 359.2C300 358.7 343 367.3 385.8 367.8C428.7 368.3 471.3 360.7 514.2 358.8C557 357 600 361 642.8 362.5C685.7 364 728.3 363 771.2 363C814 363 857 364 878.5 364.5L900 365L900 451L878.5 451C857 451 814 451 771.2 451C728.3 451 685.7 451 642.8 451C600 451 557 451 514.2 451C471.3 451 428.7 451 385.8 451C343 451 300 451 257.2 451C214.3 451 171.7 451 128.8 451C86 451 43 451 21.5 451L0 451Z" fill="#ee1c99"></path><path d="M0 383L21.5 384.8C43 386.7 86 390.3 128.8 390.5C171.7 390.7 214.3 387.3 257.2 383.5C300 379.7 343 375.3 385.8 374.5C428.7 373.7 471.3 376.3 514.2 379C557 381.7 600 384.3 642.8 384.7C685.7 385 728.3 383 771.2 383.7C814 384.3 857 387.7 878.5 389.3L900 391L900 451L878.5 451C857 451 814 451 771.2 451C728.3 451 685.7 451 642.8 451C600 451 557 451 514.2 451C471.3 451 428.7 451 385.8 451C343 451 300 451 257.2 451C214.3 451 171.7 451 128.8 451C86 451 43 451 21.5 451L0 451Z" fill="#db158d"></path><path d="M0 392L21.5 392.5C43 393 86 394 128.8 392.8C171.7 391.7 214.3 388.3 257.2 390C300 391.7 343 398.3 385.8 401.3C428.7 404.3 471.3 403.7 514.2 400.3C557 397 600 391 642.8 389.5C685.7 388 728.3 391 771.2 389.8C814 388.7 857 383.3 878.5 380.7L900 378L900 451L878.5 451C857 451 814 451 771.2 451C728.3 451 685.7 451 642.8 451C600 451 557 451 514.2 451C471.3 451 428.7 451 385.8 451C343 451 300 451 257.2 451C214.3 451 171.7 451 128.8 451C86 451 43 451 21.5 451L0 451Z" fill="#c90e82"></path><path d="M0 397L21.5 401C43 405 86 413 128.8 415.3C171.7 417.7 214.3 414.3 257.2 412C300 409.7 343 408.3 385.8 408C428.7 407.7 471.3 408.3 514.2 408.3C557 408.3 600 407.7 642.8 409.5C685.7 411.3 728.3 415.7 771.2 418.2C814 420.7 857 421.3 878.5 421.7L900 422L900 451L878.5 451C857 451 814 451 771.2 451C728.3 451 685.7 451 642.8 451C600 451 557 451 514.2 451C471.3 451 428.7 451 385.8 451C343 451 300 451 257.2 451C214.3 451 171.7 451 128.8 451C86 451 43 451 21.5 451L0 451Z" fill="#b70676"></path><path d="M0 425L21.5 424.5C43 424 86 423 128.8 422.3C171.7 421.7 214.3 421.3 257.2 423.8C300 426.3 343 431.7 385.8 434.3C428.7 437 471.3 437 514.2 434.7C557 432.3 600 427.7 642.8 424.7C685.7 421.7 728.3 420.3 771.2 419.2C814 418 857 417 878.5 416.5L900 416L900 451L878.5 451C857 451 814 451 771.2 451C728.3 451 685.7 451 642.8 451C600 451 557 451 514.2 451C471.3 451 428.7 451 385.8 451C343 451 300 451 257.2 451C214.3 451 171.7 451 128.8 451C86 451 43 451 21.5 451L0 451Z" fill="#a5006b"></path></svg>