<svg id="visual" viewBox="0 0 900 450" width="900" height="450" xmlns="http://www.w3.org/2000/svg" xmlns:xlink="http://www.w3.org/1999/xlink" version="1.1"><rect x="0" y="0" width="900" height="450" fill="#4097d9"></rect><path d="M0 372L21.5 370.8C43 369.7 86 367.3 128.8 363.8C171.7 360.3 214.3 355.7 257.2 355.2C300 354.7 343 358.3 385.8 359.8C428.7 361.3 471.3 360.7 514.2 361.3C557 362 600 364 642.8 363.3C685.7 362.7 728.3 359.3 771.2 357.8C814 356.3 857 356.7 878.5 356.8L900 357L900 451L878.5 451C857 451 814 451 771.2 451C728.3 451 685.7 451 642.8 451C600 451 557 451 514.2 451C471.3 451 428.7 451 385.8 451C343 451 300 451 257.2 451C214.3 451 171.7 451 128.8 451C86 451 43 451 21.5 451L0 451Z" fill="#4097d9"></path><path d="M0 387L21.5 386.5C43 386 86 385 128.8 383.2C171.7 381.3 214.3 378.7 257.2 379.3C300 380 343 384 385.8 384C428.7 384 471.3 380 514.2 379.7C557 379.3 600 382.7 642.8 379.7C685.7 376.7 728.3 367.3 771.2 367.7C814 368 857 378 878.5 383L900 388L900 451L878.5 451C857 451 814 451 771.2 451C728.3 451 685.7 451 642.8 451C600 451 557 451 514.2 451C471.3 451 428.7 451 385.8 451C343 451 300 451 257.2 451C214.3 451 171.7 451 128.8 451C86 451 43 451 21.5 451L0 451Z" fill="#3a8cc8"></path><path d="M0 403L21.5 400.7C43 398.3 86 393.7 128.8 393.7C171.7 393.7 214.3 398.3 257.2 397C300 395.7 343 388.3 385.8 386.5C428.7 384.7 471.3 388.3 514.2 389.3C557 390.3 600 388.7 642.8 387.8C685.7 387 728.3 387 771.2 389.3C814 391.7 857 396.3 878.5 398.7L900 401L900 451L878.5 451C857 451 814 451 771.2 451C728.3 451 685.7 451 642.8 451C600 451 557 451 514.2 451C471.3 451 428.7 451 385.8 451C343 451 300 451 257.2 451C214.3 451 171.7 451 128.8 451C86 451 43 451 21.5 451L0 451Z" fill="#3582b8"></path><path d="M0 404L21.5 404.8C43 405.7 86 407.3 128.8 407.3C171.7 407.3 214.3 405.7 257.2 404.3C300 403 343 402 385.8 403.8C428.7 405.7 471.3 410.3 514.2 409.7C557 409 600 403 642.8 399.8C685.7 396.7 728.3 396.3 771.2 396.7C814 397 857 398 878.5 398.5L900 399L900 451L878.5 451C857 451 814 451 771.2 451C728.3 451 685.7 451 642.8 451C600 451 557 451 514.2 451C471.3 451 428.7 451 385.8 451C343 451 300 451 257.2 451C214.3 451 171.7 451 128.8 451C86 451 43 451 21.5 451L0 451Z" fill="#3077a8"></path><path d="M0 423L21.5 422C43 421 86 419 128.8 420.2C171.7 421.3 214.3 425.7 257.2 426.3C300 427 343 424 385.8 424.8C428.7 425.7 471.3 430.3 514.2 431C557 431.7 600 428.3 642.8 426.7C685.7 425 728.3 425 771.2 423.7C814 422.3 857 419.7 878.5 418.3L900 417L900 451L878.5 451C857 451 814 451 771.2 451C728.3 451 685.7 451 642.8 451C600 451 557 451 514.2 451C471.3 451 428.7 451 385.8 451C343 451 300 451 257.2 451C214.3 451 171.7 451 128.8 451C86 451 43 451 21.5 451L0 451Z" fill="#2c6d98"></path></svg>