<svg id="visual" viewBox="0 0 900 450" width="900" height="450" xmlns="http://www.w3.org/2000/svg" xmlns:xlink="http://www.w3.org/1999/xlink" version="1.1"><rect x="0" y="0" width="900" height="450" fill="#f25c19"></rect><path d="M0 344L21.5 348.8C43 353.7 86 363.3 128.8 367.8C171.7 372.3 214.3 371.7 257.2 367.8C300 364 343 357 385.8 351.3C428.7 345.7 471.3 341.3 514.2 339.3C557 337.3 600 337.7 642.8 339.8C685.7 342 728.3 346 771.2 348.2C814 350.3 857 350.7 878.5 350.8L900 351L900 451L878.5 451C857 451 814 451 771.2 451C728.3 451 685.7 451 642.8 451C600 451 557 451 514.2 451C471.3 451 428.7 451 385.8 451C343 451 300 451 257.2 451C214.3 451 171.7 451 128.8 451C86 451 43 451 21.5 451L0 451Z" fill="#f25c19"></path><path d="M0 372L21.5 369.5C43 367 86 362 128.8 360C171.7 358 214.3 359 257.2 362.3C300 365.7 343 371.3 385.8 373.7C428.7 376 471.3 375 514.2 377.3C557 379.7 600 385.3 642.8 385C685.7 384.7 728.3 378.3 771.2 373.3C814 368.3 857 364.7 878.5 362.8L900 361L900 451L878.5 451C857 451 814 451 771.2 451C728.3 451 685.7 451 642.8 451C600 451 557 451 514.2 451C471.3 451 428.7 451 385.8 451C343 451 300 451 257.2 451C214.3 451 171.7 451 128.8 451C86 451 43 451 21.5 451L0 451Z" fill="#e35616"></path><path d="M0 378L21.5 380.7C43 383.3 86 388.7 128.8 392.3C171.7 396 214.3 398 257.2 396.8C300 395.7 343 391.3 385.8 389C428.7 386.7 471.3 386.3 514.2 388C557 389.7 600 393.3 642.8 394.3C685.7 395.3 728.3 393.7 771.2 392.5C814 391.3 857 390.7 878.5 390.3L900 390L900 451L878.5 451C857 451 814 451 771.2 451C728.3 451 685.7 451 642.8 451C600 451 557 451 514.2 451C471.3 451 428.7 451 385.8 451C343 451 300 451 257.2 451C214.3 451 171.7 451 128.8 451C86 451 43 451 21.5 451L0 451Z" fill="#d55014"></path><path d="M0 398L21.5 398C43 398 86 398 128.8 399.5C171.7 401 214.3 404 257.2 407.8C300 411.7 343 416.3 385.8 418.5C428.7 420.7 471.3 420.3 514.2 419.7C557 419 600 418 642.8 414.3C685.7 410.7 728.3 404.3 771.2 400.8C814 397.3 857 396.7 878.5 396.3L900 396L900 451L878.5 451C857 451 814 451 771.2 451C728.3 451 685.7 451 642.8 451C600 451 557 451 514.2 451C471.3 451 428.7 451 385.8 451C343 451 300 451 257.2 451C214.3 451 171.7 451 128.8 451C86 451 43 451 21.5 451L0 451Z" fill="#c74a12"></path><path d="M0 416L21.5 419.3C43 422.7 86 429.3 128.8 432.7C171.7 436 214.3 436 257.2 435.7C300 435.3 343 434.7 385.8 432.3C428.7 430 471.3 426 514.2 423.3C557 420.7 600 419.3 642.8 418.5C685.7 417.7 728.3 417.3 771.2 420.5C814 423.7 857 430.3 878.5 433.7L900 437L900 451L878.5 451C857 451 814 451 771.2 451C728.3 451 685.7 451 642.8 451C600 451 557 451 514.2 451C471.3 451 428.7 451 385.8 451C343 451 300 451 257.2 451C214.3 451 171.7 451 128.8 451C86 451 43 451 21.5 451L0 451Z" fill="#b94410"></path></svg>