<svg id="visual" viewBox="0 0 900 450" width="900" height="450" xmlns="http://www.w3.org/2000/svg" xmlns:xlink="http://www.w3.org/1999/xlink" version="1.1"><rect x="0" y="0" width="900" height="450" fill="#57c035"></rect><path d="M0 360L21.5 360.7C43 361.3 86 362.7 128.8 364C171.7 365.3 214.3 366.7 257.2 368C300 369.3 343 370.7 385.8 368C428.7 365.3 471.3 358.7 514.2 354.3C557 350 600 348 642.8 348.2C685.7 348.3 728.3 350.7 771.2 353.5C814 356.3 857 359.7 878.5 361.3L900 363L900 451L878.5 451C857 451 814 451 771.2 451C728.3 451 685.7 451 642.8 451C600 451 557 451 514.2 451C471.3 451 428.7 451 385.8 451C343 451 300 451 257.2 451C214.3 451 171.7 451 128.8 451C86 451 43 451 21.5 451L0 451Z" fill="#57c035"></path><path d="M0 382L21.5 382.7C43 383.3 86 384.7 128.8 380.7C171.7 376.7 214.3 367.3 257.2 365.5C300 363.7 343 369.3 385.8 373.2C428.7 377 471.3 379 514.2 379.5C557 380 600 379 642.8 380C685.7 381 728.3 384 771.2 383.5C814 383 857 379 878.5 377L900 375L900 451L878.5 451C857 451 814 451 771.2 451C728.3 451 685.7 451 642.8 451C600 451 557 451 514.2 451C471.3 451 428.7 451 385.8 451C343 451 300 451 257.2 451C214.3 451 171.7 451 128.8 451C86 451 43 451 21.5 451L0 451Z" fill="#50b230"></path><path d="M0 379L21.5 380.2C43 381.3 86 383.7 128.8 386.7C171.7 389.7 214.3 393.3 257.2 392.8C300 392.3 343 387.7 385.8 384.2C428.7 380.7 471.3 378.3 514.2 379C557 379.7 600 383.3 642.8 387.8C685.7 392.3 728.3 397.7 771.2 400.3C814 403 857 403 878.5 403L900 403L900 451L878.5 451C857 451 814 451 771.2 451C728.3 451 685.7 451 642.8 451C600 451 557 451 514.2 451C471.3 451 428.7 451 385.8 451C343 451 300 451 257.2 451C214.3 451 171.7 451 128.8 451C86 451 43 451 21.5 451L0 451Z" fill="#4aa42c"></path><path d="M0 413L21.5 410.3C43 407.7 86 402.3 128.8 401.7C171.7 401 214.3 405 257.2 406.8C300 408.7 343 408.3 385.8 407.2C428.7 406 471.3 404 514.2 406C557 408 600 414 642.8 414.7C685.7 415.3 728.3 410.7 771.2 410.2C814 409.7 857 413.3 878.5 415.2L900 417L900 451L878.5 451C857 451 814 451 771.2 451C728.3 451 685.7 451 642.8 451C600 451 557 451 514.2 451C471.3 451 428.7 451 385.8 451C343 451 300 451 257.2 451C214.3 451 171.7 451 128.8 451C86 451 43 451 21.5 451L0 451Z" fill="#449628"></path><path d="M0 422L21.5 422.5C43 423 86 424 128.8 425.8C171.7 427.7 214.3 430.3 257.2 429.7C300 429 343 425 385.8 423.3C428.7 421.7 471.3 422.3 514.2 425.2C557 428 600 433 642.8 435.2C685.7 437.3 728.3 436.7 771.2 434.5C814 432.3 857 428.7 878.5 426.8L900 425L900 451L878.5 451C857 451 814 451 771.2 451C728.3 451 685.7 451 642.8 451C600 451 557 451 514.2 451C471.3 451 428.7 451 385.8 451C343 451 300 451 257.2 451C214.3 451 171.7 451 128.8 451C86 451 43 451 21.5 451L0 451Z" fill="#3e8924"></path></svg>