<svg id="visual" viewBox="0 0 900 450" width="900" height="450" xmlns="http://www.w3.org/2000/svg" xmlns:xlink="http://www.w3.org/1999/xlink" version="1.1"><rect x="0" y="0" width="900" height="450" fill="#fab60a"></rect><path d="M0 379L21.5 376C43 373 86 367 128.8 365.3C171.7 363.7 214.3 366.3 257.2 368.3C300 370.3 343 371.7 385.8 371.7C428.7 371.7 471.3 370.3 514.2 371.3C557 372.3 600 375.7 642.8 375.5C685.7 375.3 728.3 371.7 771.2 370.3C814 369 857 370 878.5 370.5L900 371L900 451L878.5 451C857 451 814 451 771.2 451C728.3 451 685.7 451 642.8 451C600 451 557 451 514.2 451C471.3 451 428.7 451 385.8 451C343 451 300 451 257.2 451C214.3 451 171.7 451 128.8 451C86 451 43 451 21.5 451L0 451Z" fill="#fab60a"></path><path d="M0 357L21.5 358.3C43 359.7 86 362.3 128.8 368.3C171.7 374.3 214.3 383.7 257.2 383C300 382.3 343 371.7 385.8 367.8C428.7 364 471.3 367 514.2 371.3C557 375.7 600 381.3 642.8 383.8C685.7 386.3 728.3 385.7 771.2 386C814 386.3 857 387.7 878.5 388.3L900 389L900 451L878.5 451C857 451 814 451 771.2 451C728.3 451 685.7 451 642.8 451C600 451 557 451 514.2 451C471.3 451 428.7 451 385.8 451C343 451 300 451 257.2 451C214.3 451 171.7 451 128.8 451C86 451 43 451 21.5 451L0 451Z" fill="#edad07"></path><path d="M0 386L21.5 389.3C43 392.7 86 399.3 128.8 400.2C171.7 401 214.3 396 257.2 395.3C300 394.7 343 398.3 385.8 397.8C428.7 397.3 471.3 392.7 514.2 393.8C557 395 600 402 642.8 401.3C685.7 400.7 728.3 392.3 771.2 389.7C814 387 857 390 878.5 391.5L900 393L900 451L878.5 451C857 451 814 451 771.2 451C728.3 451 685.7 451 642.8 451C600 451 557 451 514.2 451C471.3 451 428.7 451 385.8 451C343 451 300 451 257.2 451C214.3 451 171.7 451 128.8 451C86 451 43 451 21.5 451L0 451Z" fill="#e0a404"></path><path d="M0 422L21.5 418.3C43 414.7 86 407.3 128.8 404.3C171.7 401.3 214.3 402.7 257.2 404.8C300 407 343 410 385.8 413C428.7 416 471.3 419 514.2 420.2C557 421.3 600 420.7 642.8 420C685.7 419.3 728.3 418.7 771.2 416.3C814 414 857 410 878.5 408L900 406L900 451L878.5 451C857 451 814 451 771.2 451C728.3 451 685.7 451 642.8 451C600 451 557 451 514.2 451C471.3 451 428.7 451 385.8 451C343 451 300 451 257.2 451C214.3 451 171.7 451 128.8 451C86 451 43 451 21.5 451L0 451Z" fill="#d39b02"></path><path d="M0 424L21.5 425.7C43 427.3 86 430.7 128.8 432C171.7 433.3 214.3 432.7 257.2 430.3C300 428 343 424 385.8 424.5C428.7 425 471.3 430 514.2 431.5C557 433 600 431 642.8 429.8C685.7 428.7 728.3 428.3 771.2 429.2C814 430 857 432 878.5 433L900 434L900 451L878.5 451C857 451 814 451 771.2 451C728.3 451 685.7 451 642.8 451C600 451 557 451 514.2 451C471.3 451 428.7 451 385.8 451C343 451 300 451 257.2 451C214.3 451 171.7 451 128.8 451C86 451 43 451 21.5 451L0 451Z" fill="#c79200"></path></svg>