<svg xmlns="http://www.w3.org/2000/svg" version="1.1" xmlns:xlink="http://www.w3.org/1999/xlink" xmlns:svgjs="http://svgjs.dev/svgjs" width="1980" height="1080" preserveAspectRatio="none" viewBox="0 0 1980 1080"><g mask="url(&quot;#SvgjsMask1060&quot;)" fill="none"><rect width="1980" height="1080" x="0" y="0" fill="#0e2a47"></rect><path d="M605.22 749.65L606.86 749.65L606.86 800.09L605.22 800.09z" fill="rgba(242, 92, 25, 1)"></path><path d="M1212.21 878.93L1256.84 878.93L1256.84 894.87L1212.21 894.87z" stroke="rgba(238, 28, 153, 1)"></path><path d="M519.78 847.02a80.38 80.38 0 1 0-113.89 113.46z" stroke="rgba(217, 25, 32, 1)"></path><path d="M1092.13 232.84L1167.22 232.84L1167.22 307.93L1092.13 307.93z" fill="rgba(242, 92, 25, 1)"></path><path d="M494.21 212.37a23.91 23.91 0 1 0-35.43 32.12z" fill="rgba(88, 78, 75, 1)"></path><path d="M415.96 226.5L439.02 226.5L439.02 249.56L415.96 249.56z" fill="rgba(64, 151, 217, 1)"></path><path d="M779.16 759.4a9.16 9.16 0 1 0 5.17-17.57z" fill="rgba(242, 92, 25, 1)"></path><path d="M1550.07 446.89L1609.49 446.89L1609.49 539.73L1550.07 539.73z" fill="rgba(87, 192, 53, 1)"></path><path d="M343.5 209.21a68.95 68.95 0 1 0-84.06 109.31z" fill="rgba(242, 92, 25, 1)"></path><path d="M1000.73 85.32L1082.8 85.32L1082.8 167.39L1000.73 167.39z" stroke="rgba(217, 25, 32, 1)"></path><path d="M796.17 280.31 a70.02 70.02 0 1 0 140.04 0 a70.02 70.02 0 1 0 -140.04 0z" stroke="rgba(87, 192, 53, 1)"></path><path d="M234.8 887.36a5.22 5.22 0 1 0 9.65-3.98z" fill="rgba(88, 78, 75, 1)"></path><path d="M1789.45 794.5L1845.3 794.5L1845.3 850.35L1789.45 850.35z" fill="rgba(242, 92, 25, 1)"></path><path d="M1424.35 537.71 a23.9 23.9 0 1 0 47.8 0 a23.9 23.9 0 1 0 -47.8 0z" stroke="rgba(88, 78, 75, 1)"></path><path d="M373.04 65.49L379.74 65.49L379.74 103.75L373.04 103.75z" fill="rgba(217, 25, 32, 1)"></path><path d="M26.71 121.62 a7.29 7.29 0 1 0 14.58 0 a7.29 7.29 0 1 0 -14.58 0z" fill="rgba(0, 117, 130, 1)"></path><path d="M1734.53 538.35L1835.3 538.35L1835.3 639.12L1734.53 639.12z" fill="rgba(0, 117, 130, 1)"></path><path d="M228.74 371.48a17.67 17.67 0 1 0-16.03-31.49z" stroke="rgba(64, 151, 217, 1)"></path><path d="M396.58 779.92L414.39 779.92L414.39 797.73L396.58 797.73z" stroke="rgba(87, 192, 53, 1)"></path><path d="M1390.92-5.87a81.46 81.46 0 1 0 44.99 156.58z" fill="rgba(238, 28, 153, 1)"></path><path d="M1816.76 204.75L1840.74 204.75L1840.74 227.8L1816.76 227.8z" fill="rgba(88, 78, 75, 1)"></path><path d="M1398.72 1032.34L1475.48 1032.34L1475.48 1066.14L1398.72 1066.14z" stroke="rgba(0, 117, 130, 1)"></path><path d="M1274.59 717.49L1331.09 717.49L1331.09 768.04L1274.59 768.04z" fill="rgba(250, 182, 10, 1)"></path></g><defs><mask id="SvgjsMask1060"><rect width="1980" height="1080" fill="#ffffff"></rect></mask></defs></svg>