<?xml version="1.0" encoding="UTF-8" standalone="no"?>
<!-- Created with Inkscape (http://www.inkscape.org/) -->

<svg
   xmlns:dc="http://purl.org/dc/elements/1.1/"
   xmlns:cc="http://creativecommons.org/ns#"
   xmlns:rdf="http://www.w3.org/1999/02/22-rdf-syntax-ns#"
   xmlns:svg="http://www.w3.org/2000/svg"
   xmlns="http://www.w3.org/2000/svg"
   version="1.1"
   width="892.91339"
   height="208.70078"
   id="svg12313">
  <defs
     id="defs12315" />
  <metadata
     id="metadata12318">
    <rdf:RDF>
      <cc:Work
         rdf:about="">
        <dc:format>image/svg+xml</dc:format>
        <dc:type
           rdf:resource="http://purl.org/dc/dcmitype/StillImage" />
        <dc:title></dc:title>
      </cc:Work>
    </rdf:RDF>
  </metadata>
  <g
     transform="translate(60.840967,-450)"
     id="layer1">
    <g
       transform="matrix(4.9518305,0,0,4.9518305,-1718.7344,-2553.0548)"
       id="g12410">
      <path
         d="m 393.40471,629.05764 0,6.4425 -33.50875,-26.26875 8.22375,0 25.285,19.82625 z"
         id="path11291"
         style="fill:#57c035;fill-opacity:1;fill-rule:nonzero;stroke:none" />
      <path
         d="m 413.57346,629.05764 0,6.4425 -33.50625,-26.26875 8.21625,0 25.29,19.82625 z"
         id="path11293"
         style="fill:#fab60a;fill-opacity:1;fill-rule:nonzero;stroke:none" />
      <path
         d="m 373.23846,629.05764 0,6.4425 -33.50875,-26.26875 8.22,0 25.28875,19.82625 z"
         id="path11295"
         style="fill:#584e4b;fill-opacity:1;fill-rule:nonzero;stroke:none" />
      <path
         d="m 433.74346,629.05764 0,6.4425 -33.5125,-26.26875 8.2225,0 25.29,19.82625 z"
         id="path11297"
         style="fill:#f25c19;fill-opacity:1;fill-rule:nonzero;stroke:none" />
      <path
         d="m 453.90971,629.05764 0,6.4425 -33.5075,-26.26875 8.215,0 25.2925,19.82625 z"
         id="path11299"
         style="fill:#d91920;fill-opacity:1;fill-rule:nonzero;stroke:none" />
      <path
         d="m 474.07471,629.05764 0,6.4425 -33.50875,-26.26875 8.2225,0 25.28625,19.82625 z"
         id="path11301"
         style="fill:#007582;fill-opacity:1;fill-rule:nonzero;stroke:none" />
      <path
         d="m 494.24221,629.05764 0,6.4425 -33.50625,-26.26875 8.22,0 25.28625,19.82625 z"
         id="path11303"
         style="fill:#ee1c99;fill-opacity:1;fill-rule:nonzero;stroke:none" />
      <path
         d="m 514.40846,635.50014 -33.505,-26.26875 8.2175,0 25.2875,19.82625 0,6.4425 z"
         id="path11305"
         style="fill:#4097d9;fill-opacity:1;fill-rule:nonzero;stroke:none" />
    </g>
  </g>
</svg>
